<svg xmlns="http://www.w3.org/2000/svg" viewBox="0 0 82.06 83.65"><defs><style>.cls-1{fill:#8a8a8a;}.cls-2{fill:#d0191d;}.cls-3{fill:#fff;stroke:#b9b6bd;stroke-miterlimit:10;stroke-width:0.7px;}</style></defs><title>Open House Calendar</title><g id="Layer_2" data-name="Layer 2"><g id="Property_Details" data-name="Property Details"><path class="cls-1" d="M21.69,0a1.94,1.94,0,0,0-1.94,1.94V18.4a1.94,1.94,0,0,0,3.87,0V1.94A1.94,1.94,0,0,0,21.69,0Z"/><path class="cls-1" d="M60.43,0A1.94,1.94,0,0,0,58.5,1.94V18.4a1.94,1.94,0,0,0,3.87,0V1.94A1.94,1.94,0,0,0,60.43,0Z"/><path class="cls-2" d="M8.13,5.81A7.77,7.77,0,0,0,.35,13.59V31H81.71V13.59a7.77,7.77,0,0,0-7.78-7.78H64.31v8.26a5.81,5.81,0,1,1-7.75,0V5.81h-31V14a5.82,5.82,0,1,1-7.75.06V5.81Z"/><path class="cls-3" d="M.35,34.87V75.52A7.77,7.77,0,0,0,8.13,83.3h65.8a7.77,7.77,0,0,0,7.78-7.78V34.87Z"/></g></g></svg>